<svg xmlns="http://www.w3.org/2000/svg" id="Layer_1" viewBox="0 0 86.15 61.45" width="86.15" height="61.45"><defs><style>.cls-1{opacity:.98}.cls-2{fill:#4ec4d3}.cls-3{isolation:isolate}.cls-4{fill:#231f20}</style></defs><g id="Ellipse_2" class="cls-1"><circle cx="75.15" cy="49.65" r="11" class="cls-2"/></g><g id="a" class="cls-3"><path d="M38.53 15.85c0-7.19 0-14.85-8.43-14.85-4.56 0-9.47 3.64-9.47 9.23 0 2.62 1.6 5.59 4 6.61-.34 6.5-5 9.58-10.14 9.58C9 26.45 3.76 23.14 3.76 15.73 3.76 1.82 22.8 0 33.29 0c13 0 26.44 4.22 26.44 17.44v26.34c0 3.76 0 10.26 5.25 10.26a8.26 8.26 0 0 0 5-1.83l.45.57c-5.24 4.45-11.74 8.67-20 8.67-6.5 0-10.83-4.91-11.85-12.54-3.31 8-12.09 12.54-21.09 12.54C6.84 61.45 0 56.32 0 46.51c0-18 25.65-14.93 38.53-23.82zm0 7.75C30.44 28.84 24.4 29.3 24.4 42c0 4.33.79 11.29 7.18 11.29 4.33 0 7-4.22 7-8.44z" class="cls-4"/></g></svg>