<svg id="Layer_1" data-name="Layer 1" xmlns="http://www.w3.org/2000/svg" viewBox="0 0 592.38 117.11"><defs><style>.cls-1{fill:#231f20;}.cls-2{fill:#4ec4d3;}</style></defs><title>2Artboard 6</title><path class="cls-1" d="M39,45.81c0-7.27,0-15-8.54-15-4.61,0-9.58,3.69-9.58,9.34,0,2.66,1.62,5.66,4,6.69-.34,6.58-5.07,9.7-10.27,9.7-5.54,0-10.84-3.35-10.84-10.85,0-14.08,19.27-15.92,29.88-15.92,13.15,0,26.77,4.27,26.77,17.65V74.07c0,3.81,0,10.39,5.31,10.39a8.3,8.3,0,0,0,5.07-1.85l.46.58C66,87.69,59.42,92,51.11,92c-6.57,0-11-5-12-12.69C35.77,87.34,26.88,92,17.77,92,6.92,92,0,86.77,0,76.84,0,58.61,26,61.73,39,52.73Zm0,7.84C30.81,59,24.69,59.42,24.69,72.23c0,4.38.81,11.42,7.27,11.42,4.38,0,7-4.27,7-8.54Z"/><path class="cls-1" d="M111.46,91.15v-.81c6.11,0,6.23-3.11,6.23-12.34V49.73c0-4.73-.58-11-7.27-11-2.77,0-6.69,1.5-10.15,4.5V78c0,7.26.11,12.34,6.34,12.34v.81H68.88v-.81c9,0,10-2.31,10-14.65V48c0-7.73-1.61-10.85-11.42-8.54l-.23-.81,33.23-8.88-.35,12.46c11.42-9.35,18.46-12.46,25.5-12.46C135,29.77,139,35,139,46.73v29c0,12.34,1,14.65,10,14.65v.81Z"/><path class="cls-1" d="M142.27,30.58h2.42c9.46,0,16.27-2,21.12-6,3.46-4.39,5.42-10.27,5.42-17.08h1.15V30.58h12.69v1.15H172.38v40c0,4.5.12,12.57,6.46,12.57,3.12,0,5.77-1.61,8.43-3.57l.46.57C181.38,86.77,173.42,92,163.5,92c-8,0-12.46-7.27-12.46-16.27v-44h-8.77Z"/><path class="cls-1" d="M227.42,91.15v-.81c6.11,0,6.23-3.11,6.23-12.34V49.73c0-4.73-.58-11-7.27-11-2.77,0-6.69,1.5-10.15,4.5V78c0,7.26.11,12.34,6.34,12.34v.81H184.84v-.81c9,0,10-2.31,10-14.65V18.23c0-7.73-1.61-10.85-11.42-8.54l-.23-.81L216.46,0l-.35,42.23c11.42-9.35,18.46-12.46,25.5-12.46C251,29.77,255,35,255,46.73v29c0,12.34,1,14.65,10,14.65v.81Z"/><path class="cls-1" d="M329.76,60.92c0,17.88-14.65,31-33.57,31s-33.46-13.16-33.46-31,14.65-31.15,33.46-31.15S329.76,42.92,329.76,60.92Zm-23.42,0c0-13.15,0-30.23-10.15-30.23s-10,17.08-10,30.23c0,13.5,0,30.11,10,30.11S306.34,74.42,306.34,60.92Z"/><path class="cls-1" d="M329.19,91.15v-.81c9,0,10-2.31,10-14.65V18.23c0-7.73-1.62-10.85-11.43-8.54l-.23-.81,33-8.88V75.69c0,12.34,1,14.65,10,14.65v.81Z"/><path class="cls-1" d="M436.61,60.92C436.61,78.8,422,92,403,92s-33.46-13.16-33.46-31S384.22,29.77,403,29.77,436.61,42.92,436.61,60.92Zm-23.42,0c0-13.15,0-30.23-10.16-30.23s-10,17.08-10,30.23C393,74.42,393,91,403,91S413.19,74.42,413.19,60.92Z"/><path class="cls-1" d="M440.53,99.92c0-5.77,4.27-8.42,8.66-8.42,4.15,0,8.65,2.53,8.88,7.73-2.42.69-3.92,3.11-3.92,6,0,3.92,3.23,6.69,14,6.69,14.42,0,24.46-5.19,24.46-12.93,0-5.42-5-8.53-14.19-8.53-3,0-7.85.23-13.16.23-11.53,0-25.15-1.73-25.15-13.5,0-6.23,6.23-11.65,15.81-16.85-5.77-1.84-11.54-6.46-11.54-13.27,0-12.8,18.35-18.46,29.31-18.11-3.81-10.15,2.65-20.88,13.84-20.88,6.58,0,11,3.8,11,9.46,0,5.42-4.15,9.46-9.57,9.8.57-3.57-3.58-5.42-7.39-5.42s-7.84,1.73-7,7c12.58,0,25,7.38,25,16,0,10.61-12,18.23-28.5,18.23A50.21,50.21,0,0,1,456.8,60.8C447.69,67.5,454.61,70,467,70c3.35,0,8.2-.24,12-.24,11.66,0,26.66,2.54,26.66,17.77,0,15.81-16.39,25.39-38.66,25.39C454.38,113,440.53,110.3,440.53,99.92Zm23.19-54.35c0,11.43,2.66,16.73,8.54,16.73,7.62,0,7.73-9.57,7.73-15.92,0-10.84-2.88-16.5-8.54-16.5S463.72,34.38,463.72,45.57Z"/><path class="cls-1" d="M557.3,55c4.5-9.47,8.77-23.66-4.39-23.66v-.8h26v.8c-8.07,0-12.57,8-20.19,23.66l-19,39.34c-4.62,9.69-11.2,22.73-24.7,22.73-10.38,0-15.69-7-15.69-13.61,0-5.66,3.93-11,11.89-11,5.77,0,11,3.35,11.3,10.62-2.77.92-5.3,3.23-5.3,6.69a3.73,3.73,0,0,0,4,4c4.61,0,11.76-7.15,17.76-21L515,44.31c-4.38-8.89-7.5-12.93-14.88-12.93v-.8h43v.8c-9.12,0-6.7,7.5-3.35,14.66l10.73,23.07Z"/><path class="cls-2" d="M592.38,80.88A11.08,11.08,0,1,1,581.3,69.8,11.09,11.09,0,0,1,592.38,80.88Z"/></svg>